<?xml version="1.0" standalone="no"?>
<!DOCTYPE svg PUBLIC "-//W3C//DTD SVG 20010904//EN"
 "http://www.w3.org/TR/2001/REC-SVG-20010904/DTD/svg10.dtd">
<svg version="1.0" xmlns="http://www.w3.org/2000/svg"
 width="250.000000pt" height="250.000000pt" viewBox="0 0 250.000000 250.000000"
 preserveAspectRatio="xMidYMid meet">
<metadata>
Created by potrace 1.14, written by Peter Selinger 2001-2017
</metadata>
<g transform="translate(0.000000,250.000000) scale(0.100000,-0.100000)"
fill="#000000" stroke="none">
<path d="M398 2232 l-218 -126 0 -736 0 -735 416 -240 c229 -132 427 -241 439
-243 15 -2 109 47 267 137 l245 141 304 0 c224 0 308 3 317 12 8 8 12 64 12
184 0 189 -4 204 -59 204 -23 0 -31 9 -65 77 l-38 78 -39 -78 c-59 -117 -69
-107 -69 66 l0 142 203 116 202 117 0 262 0 262 -215 124 c-118 68 -221 124
-230 124 -8 0 -112 -56 -230 -124 l-215 -124 -3 -239 -2 -240 -39 -21 c-33
-19 -54 -22 -144 -22 -127 0 -137 -6 -137 -85 0 -30 -5 -57 -10 -60 -7 -4 -10
144 -10 437 0 341 -3 448 -12 460 -14 16 -432 259 -445 257 -4 0 -106 -57
-225 -127z m394 -48 c92 -53 165 -100 163 -105 -7 -10 -319 -189 -331 -189
-16 0 -333 185 -331 193 2 7 313 193 326 196 3 1 80 -42 173 -95z m1245 -235
c87 -50 161 -94 165 -98 4 -3 -69 -51 -162 -105 l-170 -97 -169 97 c-94 54
-168 101 -165 104 13 13 320 188 331 189 7 1 84 -40 170 -90z m-1029 -369 l-3
-425 -105 -60 c-58 -34 -135 -78 -172 -99 l-68 -38 0 434 1 433 167 96 c92 52
170 93 175 89 4 -3 6 -197 5 -430z m-583 337 l160 -93 3 -471 c2 -422 4 -472
19 -484 9 -8 100 -61 202 -119 l186 -105 3 -199 c1 -109 -1 -196 -6 -194 -4 1
-175 99 -380 217 l-372 213 0 664 c0 525 3 664 13 664 6 0 84 -42 172 -93z
m1208 -213 c73 -42 149 -87 170 -100 l37 -24 0 -115 0 -115 -136 0 c-122 0
-140 2 -175 22 l-39 22 0 193 c0 106 3 193 6 193 3 0 65 -34 137 -76z m617
-117 l0 -193 -137 -79 c-76 -44 -153 -88 -171 -98 l-32 -19 2 197 3 198 160
92 c88 51 163 94 168 94 4 1 7 -86 7 -192z m-730 -312 c0 -10 10 -15 33 -15
17 0 46 -9 62 -20 l30 -20 -26 0 c-20 0 -28 -6 -33 -23 -3 -13 -17 -41 -31
-61 l-26 -39 21 -22 c13 -14 18 -28 14 -39 -6 -15 -10 -14 -35 10 l-29 28 -44
-43 c-27 -26 -49 -40 -56 -36 -8 5 3 23 34 54 l46 47 -25 34 c-14 19 -25 38
-25 42 0 17 25 7 47 -19 l23 -28 24 29 c51 61 46 66 -70 66 -97 0 -104 1 -104
20 0 18 7 20 70 20 56 0 70 3 70 15 0 8 7 15 15 15 8 0 15 -7 15 -15z m-420
-228 c0 -81 9 -97 52 -97 25 0 32 -8 60 -65 18 -35 30 -66 27 -69 -2 -2 -48
-29 -102 -60 l-98 -55 -163 92 c-89 51 -162 97 -162 102 0 9 362 224 379 225
4 0 7 -33 7 -73z m360 -102 c0 -6 -154 -95 -158 -91 -1 2 7 24 20 50 l22 46
58 0 c32 0 58 -2 58 -5z m378 -57 l3 -58 -213 0 c-234 0 -226 -4 -118 58 114
64 108 62 220 60 l105 -3 3 -57z m-453 -465 c0 -4 -298 -173 -306 -173 -5 0
-9 77 -9 189 0 163 2 190 17 202 9 8 77 49 152 91 l136 78 5 -193 c3 -105 5
-193 5 -194z m429 330 c20 -58 20 -83 1 -83 -9 0 -20 19 -28 48 l-14 47 -24
-73 c-15 -47 -31 -78 -46 -87 -13 -9 -23 -14 -23 -12 0 3 55 167 65 195 2 6
15 12 29 12 20 0 27 -8 40 -47z m74 -216 c27 -72 27 -77 3 -77 -14 0 -24 13
-36 50 -15 46 -19 50 -48 50 l-32 0 40 24 c22 14 43 22 46 18 3 -4 15 -33 27
-65z m-205 -55 c-3 -13 -13 -22 -24 -22 -26 0 -24 25 4 37 27 13 28 12 20 -15z"/>
</g>
</svg>
